<?xml version="1.0" standalone="no"?>
<!DOCTYPE svg PUBLIC "-//W3C//DTD SVG 20010904//EN"
 "http://www.w3.org/TR/2001/REC-SVG-20010904/DTD/svg10.dtd">
<svg version="1.0" xmlns="http://www.w3.org/2000/svg"
 width="266.000000pt" height="266.000000pt" viewBox="0 0 266.000000 266.000000"
 preserveAspectRatio="xMidYMid meet">
<metadata>
Created by potrace 1.11, written by Peter Selinger 2001-2013
</metadata>
<g transform="translate(0.000000,266.000000) scale(0.100000,-0.100000)"
fill="#000000" stroke="none">
<path d="M2130 2640 c-52 -10 -117 -21 -144 -24 -27 -4 -92 -13 -145 -21 -53
-8 -116 -17 -141 -20 -25 -3 -79 -10 -120 -15 -81 -11 -122 -15 -215 -25 -33
-4 -71 -8 -85 -10 -14 -2 -45 -7 -70 -10 -68 -10 -217 -62 -290 -102 -283
-154 -485 -443 -527 -753 -11 -81 -7 -263 7 -334 69 -346 299 -628 620 -758
197 -80 432 -92 639 -32 422 122 721 511 730 950 1 72 5 91 19 99 45 27 133
129 160 187 53 112 63 203 38 331 -19 94 -24 128 -32 212 -3 39 -7 86 -9 105
-2 19 -4 49 -4 66 l-1 31 -82 -13 c-45 -8 -106 -16 -137 -20 -31 -3 -59 -8
-63 -11 -5 -2 -9 20 -10 49 0 29 -2 58 -3 63 -2 6 -3 25 -4 43 -1 38 2 37
-131 12z"/>
<path d="M257 1618 c-31 -111 -39 -169 -40 -267 -2 -191 27 -319 108 -486 58
-117 113 -197 198 -284 406 -416 1085 -428 1502 -26 72 69 69 69 -34 -3 -117
-82 -303 -159 -426 -177 -22 -4 -51 -8 -65 -11 -44 -8 -223 -4 -285 5 -247 40
-460 150 -632 328 -209 215 -311 477 -316 813 0 14 3 58 7 98 4 39 6 72 4 72
-2 0 -11 -28 -21 -62z"/>
<path d="M106 1392 c-3 -5 -8 -24 -11 -42 -3 -18 -8 -36 -10 -40 -2 -4 -6 -20
-9 -36 -3 -16 -8 -47 -12 -69 -23 -129 -2 -336 48 -480 126 -364 444 -636 828
-709 75 -14 313 -15 375 -2 184 41 331 105 465 205 54 39 151 134 144 140 -3
3 -8 1 -12 -4 -11 -16 -82 -68 -140 -103 -91 -55 -262 -119 -367 -137 -87 -16
-258 -21 -308 -10 -12 2 -44 7 -71 10 -69 8 -224 60 -309 102 -40 20 -74 40
-77 43 -3 4 -10 9 -17 11 -32 11 -184 143 -241 209 -61 72 -141 195 -175 270
-26 57 -74 211 -81 263 -4 27 -9 59 -12 70 -7 35 -7 249 0 285 6 31 3 41 -8
24z"/>
</g>
</svg>
